<svg width="40" height="40" viewBox="0 0 40 40" fill="none" xmlns="http://www.w3.org/2000/svg">
<path fill-rule="evenodd" clip-rule="evenodd" d="M33.75 13.75L33.75 32.5C33.75 32.8315 33.6183 33.1495 33.3839 33.3839C33.1495 33.6183 32.8315 33.75 32.5 33.75L13.75 33.75C13.0596 33.75 12.5 33.1904 12.5 32.5C12.5 31.8096 13.0596 31.25 13.75 31.25L29.4822 31.25L6.61612 8.38388C6.12796 7.89573 6.12796 7.10427 6.61612 6.61612C7.10427 6.12796 7.89573 6.12796 8.38388 6.61612L31.25 29.4822L31.25 13.75C31.25 13.0596 31.8096 12.5 32.5 12.5C33.1904 12.5 33.75 13.0596 33.75 13.75Z" fill="#6B645C"/>
</svg>
