<svg width="35" height="35" viewBox="0 0 35 35" fill="none" xmlns="http://www.w3.org/2000/svg">
<path d="M1.45992 19.0321C-0.334453 18.4109 -0.334453 15.8732 1.45992 15.2521L10.8404 12.005C11.42 11.8044 11.8755 11.3489 12.0761 10.7693L15.3232 1.3888C15.9444 -0.405567 18.482 -0.405566 19.1032 1.38881L22.3503 10.7693C22.5509 11.3489 23.0064 11.8044 23.586 12.005L32.9665 15.2521C34.7609 15.8732 34.7609 18.4109 32.9665 19.0321L23.586 22.2791C23.0064 22.4798 22.5509 22.9353 22.3503 23.5149L19.1032 32.8954C18.482 34.6897 15.9444 34.6897 15.3232 32.8954L12.0761 23.5149C11.8755 22.9353 11.42 22.4798 10.8404 22.2791L1.45992 19.0321Z" fill="#E8E8E3" fill-opacity="0.3"/>
</svg>
