<svg width="23" height="23" viewBox="0 0 23 23" fill="none" xmlns="http://www.w3.org/2000/svg">
<path d="M1.72045 14.3712C-0.336978 13.2282 -0.336979 10.2693 1.72045 9.12628L5.34209 7.11425C5.83181 6.84219 6.23557 6.43843 6.50764 5.94871L8.51966 2.32706C9.66268 0.269634 12.6216 0.269634 13.7646 2.32706L15.7766 5.94871C16.0487 6.43843 16.4525 6.84219 16.9422 7.11425L20.5638 9.12628C22.6213 10.2693 22.6213 13.2282 20.5638 14.3712L16.9422 16.3832C16.4525 16.6553 16.0487 17.0591 15.7766 17.5488L13.7646 21.1704C12.6216 23.2279 9.66268 23.2279 8.51966 21.1704L6.50764 17.5488C6.23557 17.0591 5.83182 16.6553 5.3421 16.3832L1.72045 14.3712Z" fill="#6B645C"/>
</svg>
